<svg class="rich-terminal" viewBox="0 0 1238 977.1999999999999" xmlns="http://www.w3.org/2000/svg">
    <!-- Generated with Rich https://www.textualize.io -->
    <style>

    @font-face {
        font-family: "Fira Code";
        src: local("FiraCode-Regular"),
                url("https://cdnjs.cloudflare.com/ajax/libs/firacode/6.2.0/woff2/FiraCode-Regular.woff2") format("woff2"),
                url("https://cdnjs.cloudflare.com/ajax/libs/firacode/6.2.0/woff/FiraCode-Regular.woff") format("woff");
        font-style: normal;
        font-weight: 400;
    }
    @font-face {
        font-family: "Fira Code";
        src: local("FiraCode-Bold"),
                url("https://cdnjs.cloudflare.com/ajax/libs/firacode/6.2.0/woff2/FiraCode-Bold.woff2") format("woff2"),
                url("https://cdnjs.cloudflare.com/ajax/libs/firacode/6.2.0/woff/FiraCode-Bold.woff") format("woff");
        font-style: bold;
        font-weight: 700;
    }

    .terminal-173405663-matrix {
        font-family: Fira Code, monospace;
        font-size: 20px;
        line-height: 24.4px;
        font-variant-east-asian: full-width;
    }

    .terminal-173405663-title {
        font-size: 18px;
        font-weight: bold;
        font-family: arial;
    }

    .terminal-173405663-r1 { fill: #c5c8c6 }
.terminal-173405663-r2 { fill: #e5e5dd }
.terminal-173405663-r3 { fill: #a7a7a7 }
.terminal-173405663-r4 { fill: #cbcbc6 }
.terminal-173405663-r5 { fill: #a6e3a1;font-weight: bold }
.terminal-173405663-r6 { fill: #ffffff }
.terminal-173405663-r7 { fill: #1a1a22;font-weight: bold }
.terminal-173405663-r8 { fill: #a3a3a6 }
.terminal-173405663-r9 { fill: #a6e3a1 }
.terminal-173405663-r10 { fill: #a3a3a6;font-weight: bold }
.terminal-173405663-r11 { fill: #fbd116 }
.terminal-173405663-r12 { fill: #fbd116;font-weight: bold }
.terminal-173405663-r13 { fill: #26262f }
.terminal-173405663-r14 { fill: #a8a8ab }
.terminal-173405663-r15 { fill: #fcd116;font-weight: bold }
.terminal-173405663-r16 { fill: #55555f }
    </style>

    <defs>
    <clipPath id="terminal-173405663-clip-terminal">
      <rect x="0" y="0" width="1219.0" height="926.1999999999999" />
    </clipPath>
    <clipPath id="terminal-173405663-line-0">
    <rect x="0" y="1.5" width="1220" height="24.65"/>
            </clipPath>
<clipPath id="terminal-173405663-line-1">
    <rect x="0" y="25.9" width="1220" height="24.65"/>
            </clipPath>
<clipPath id="terminal-173405663-line-2">
    <rect x="0" y="50.3" width="1220" height="24.65"/>
            </clipPath>
<clipPath id="terminal-173405663-line-3">
    <rect x="0" y="74.7" width="1220" height="24.65"/>
            </clipPath>
<clipPath id="terminal-173405663-line-4">
    <rect x="0" y="99.1" width="1220" height="24.65"/>
            </clipPath>
<clipPath id="terminal-173405663-line-5">
    <rect x="0" y="123.5" width="1220" height="24.65"/>
            </clipPath>
<clipPath id="terminal-173405663-line-6">
    <rect x="0" y="147.9" width="1220" height="24.65"/>
            </clipPath>
<clipPath id="terminal-173405663-line-7">
    <rect x="0" y="172.3" width="1220" height="24.65"/>
            </clipPath>
<clipPath id="terminal-173405663-line-8">
    <rect x="0" y="196.7" width="1220" height="24.65"/>
            </clipPath>
<clipPath id="terminal-173405663-line-9">
    <rect x="0" y="221.1" width="1220" height="24.65"/>
            </clipPath>
<clipPath id="terminal-173405663-line-10">
    <rect x="0" y="245.5" width="1220" height="24.65"/>
            </clipPath>
<clipPath id="terminal-173405663-line-11">
    <rect x="0" y="269.9" width="1220" height="24.65"/>
            </clipPath>
<clipPath id="terminal-173405663-line-12">
    <rect x="0" y="294.3" width="1220" height="24.65"/>
            </clipPath>
<clipPath id="terminal-173405663-line-13">
    <rect x="0" y="318.7" width="1220" height="24.65"/>
            </clipPath>
<clipPath id="terminal-173405663-line-14">
    <rect x="0" y="343.1" width="1220" height="24.65"/>
            </clipPath>
<clipPath id="terminal-173405663-line-15">
    <rect x="0" y="367.5" width="1220" height="24.65"/>
            </clipPath>
<clipPath id="terminal-173405663-line-16">
    <rect x="0" y="391.9" width="1220" height="24.65"/>
            </clipPath>
<clipPath id="terminal-173405663-line-17">
    <rect x="0" y="416.3" width="1220" height="24.65"/>
            </clipPath>
<clipPath id="terminal-173405663-line-18">
    <rect x="0" y="440.7" width="1220" height="24.65"/>
            </clipPath>
<clipPath id="terminal-173405663-line-19">
    <rect x="0" y="465.1" width="1220" height="24.65"/>
            </clipPath>
<clipPath id="terminal-173405663-line-20">
    <rect x="0" y="489.5" width="1220" height="24.65"/>
            </clipPath>
<clipPath id="terminal-173405663-line-21">
    <rect x="0" y="513.9" width="1220" height="24.65"/>
            </clipPath>
<clipPath id="terminal-173405663-line-22">
    <rect x="0" y="538.3" width="1220" height="24.65"/>
            </clipPath>
<clipPath id="terminal-173405663-line-23">
    <rect x="0" y="562.7" width="1220" height="24.65"/>
            </clipPath>
<clipPath id="terminal-173405663-line-24">
    <rect x="0" y="587.1" width="1220" height="24.65"/>
            </clipPath>
<clipPath id="terminal-173405663-line-25">
    <rect x="0" y="611.5" width="1220" height="24.65"/>
            </clipPath>
<clipPath id="terminal-173405663-line-26">
    <rect x="0" y="635.9" width="1220" height="24.65"/>
            </clipPath>
<clipPath id="terminal-173405663-line-27">
    <rect x="0" y="660.3" width="1220" height="24.65"/>
            </clipPath>
<clipPath id="terminal-173405663-line-28">
    <rect x="0" y="684.7" width="1220" height="24.65"/>
            </clipPath>
<clipPath id="terminal-173405663-line-29">
    <rect x="0" y="709.1" width="1220" height="24.65"/>
            </clipPath>
<clipPath id="terminal-173405663-line-30">
    <rect x="0" y="733.5" width="1220" height="24.65"/>
            </clipPath>
<clipPath id="terminal-173405663-line-31">
    <rect x="0" y="757.9" width="1220" height="24.65"/>
            </clipPath>
<clipPath id="terminal-173405663-line-32">
    <rect x="0" y="782.3" width="1220" height="24.65"/>
            </clipPath>
<clipPath id="terminal-173405663-line-33">
    <rect x="0" y="806.7" width="1220" height="24.65"/>
            </clipPath>
<clipPath id="terminal-173405663-line-34">
    <rect x="0" y="831.1" width="1220" height="24.65"/>
            </clipPath>
<clipPath id="terminal-173405663-line-35">
    <rect x="0" y="855.5" width="1220" height="24.65"/>
            </clipPath>
<clipPath id="terminal-173405663-line-36">
    <rect x="0" y="879.9" width="1220" height="24.65"/>
            </clipPath>
    </defs>

    <rect fill="#292929" stroke="rgba(255,255,255,0.35)" stroke-width="1" x="1" y="1" width="1236" height="975.2" rx="8"/><text class="terminal-173405663-title" fill="#c5c8c6" text-anchor="middle" x="618" y="27">IDEAM&#160;Data&#160;Automator</text>
            <g transform="translate(26,22)">
            <circle cx="0" cy="0" r="7" fill="#ff5f57"/>
            <circle cx="22" cy="0" r="7" fill="#febc2e"/>
            <circle cx="44" cy="0" r="7" fill="#28c840"/>
            </g>
        
    <g transform="translate(9, 41)" clip-path="url(#terminal-173405663-clip-terminal)">
    <rect fill="#313140" x="0" y="1.5" width="12.2" height="24.65" shape-rendering="crispEdges"/><rect fill="#313140" x="12.2" y="1.5" width="12.2" height="24.65" shape-rendering="crispEdges"/><rect fill="#313140" x="24.4" y="1.5" width="61" height="24.65" shape-rendering="crispEdges"/><rect fill="#313140" x="85.4" y="1.5" width="12.2" height="24.65" shape-rendering="crispEdges"/><rect fill="#313140" x="97.6" y="1.5" width="231.8" height="24.65" shape-rendering="crispEdges"/><rect fill="#313140" x="329.4" y="1.5" width="244" height="24.65" shape-rendering="crispEdges"/><rect fill="#313140" x="573.4" y="1.5" width="36.6" height="24.65" shape-rendering="crispEdges"/><rect fill="#313140" x="610" y="1.5" width="256.2" height="24.65" shape-rendering="crispEdges"/><rect fill="#313140" x="866.2" y="1.5" width="231.8" height="24.65" shape-rendering="crispEdges"/><rect fill="#383846" x="1098" y="1.5" width="12.2" height="24.65" shape-rendering="crispEdges"/><rect fill="#383846" x="1110.2" y="1.5" width="97.6" height="24.65" shape-rendering="crispEdges"/><rect fill="#383846" x="1207.8" y="1.5" width="12.2" height="24.65" shape-rendering="crispEdges"/><rect fill="#1a1a22" x="0" y="25.9" width="1220" height="24.65" shape-rendering="crispEdges"/><rect fill="#1a1a22" x="0" y="50.3" width="244" height="24.65" shape-rendering="crispEdges"/><rect fill="#1a1a22" x="244" y="50.3" width="146.4" height="24.65" shape-rendering="crispEdges"/><rect fill="#1a1a22" x="390.4" y="50.3" width="24.4" height="24.65" shape-rendering="crispEdges"/><rect fill="#1a1a22" x="414.8" y="50.3" width="12.2" height="24.65" shape-rendering="crispEdges"/><rect fill="#1a1a22" x="427" y="50.3" width="24.4" height="24.65" shape-rendering="crispEdges"/><rect fill="#1a1a22" x="451.4" y="50.3" width="122" height="24.65" shape-rendering="crispEdges"/><rect fill="#1a1a22" x="573.4" y="50.3" width="24.4" height="24.65" shape-rendering="crispEdges"/><rect fill="#1a1a22" x="597.8" y="50.3" width="12.2" height="24.65" shape-rendering="crispEdges"/><rect fill="#1a1a22" x="610" y="50.3" width="24.4" height="24.65" shape-rendering="crispEdges"/><rect fill="#1a1a22" x="634.4" y="50.3" width="97.6" height="24.65" shape-rendering="crispEdges"/><rect fill="#1a1a22" x="732" y="50.3" width="24.4" height="24.65" shape-rendering="crispEdges"/><rect fill="#1a1a22" x="756.4" y="50.3" width="12.2" height="24.65" shape-rendering="crispEdges"/><rect fill="#1a1a22" x="768.6" y="50.3" width="24.4" height="24.65" shape-rendering="crispEdges"/><rect fill="#fbd116" x="793" y="50.3" width="170.8" height="24.65" shape-rendering="crispEdges"/><rect fill="#1a1a22" x="963.8" y="50.3" width="256.2" height="24.65" shape-rendering="crispEdges"/><rect fill="#1a1a22" x="0" y="74.7" width="24.4" height="24.65" shape-rendering="crispEdges"/><rect fill="#1a1a22" x="24.4" y="74.7" width="12.2" height="24.65" shape-rendering="crispEdges"/><rect fill="#1a1a22" x="36.6" y="74.7" width="158.6" height="24.65" shape-rendering="crispEdges"/><rect fill="#1a1a22" x="195.2" y="74.7" width="12.2" height="24.65" shape-rendering="crispEdges"/><rect fill="#1a1a22" x="207.4" y="74.7" width="134.2" height="24.65" shape-rendering="crispEdges"/><rect fill="#1a1a22" x="341.6" y="74.7" width="158.6" height="24.65" shape-rendering="crispEdges"/><rect fill="#1a1a22" x="500.2" y="74.7" width="36.6" height="24.65" shape-rendering="crispEdges"/><rect fill="#1a1a22" x="536.8" y="74.7" width="12.2" height="24.65" shape-rendering="crispEdges"/><rect fill="#1a1a22" x="549" y="74.7" width="109.8" height="24.65" shape-rendering="crispEdges"/><rect fill="#1a1a22" x="658.8" y="74.7" width="109.8" height="24.65" shape-rendering="crispEdges"/><rect fill="#1a1a22" x="768.6" y="74.7" width="36.6" height="24.65" shape-rendering="crispEdges"/><rect fill="#1a1a22" x="805.2" y="74.7" width="12.2" height="24.65" shape-rendering="crispEdges"/><rect fill="#1a1a22" x="817.4" y="74.7" width="85.4" height="24.65" shape-rendering="crispEdges"/><rect fill="#1a1a22" x="902.8" y="74.7" width="109.8" height="24.65" shape-rendering="crispEdges"/><rect fill="#1a1a22" x="1012.6" y="74.7" width="170.8" height="24.65" shape-rendering="crispEdges"/><rect fill="#1a1a22" x="1183.4" y="74.7" width="12.2" height="24.65" shape-rendering="crispEdges"/><rect fill="#1a1a22" x="1195.6" y="74.7" width="24.4" height="24.65" shape-rendering="crispEdges"/><rect fill="#1a1a22" x="0" y="99.1" width="1171.2" height="24.65" shape-rendering="crispEdges"/><rect fill="#1a1a22" x="1171.2" y="99.1" width="48.8" height="24.65" shape-rendering="crispEdges"/><rect fill="#1a1a22" x="0" y="123.5" width="24.4" height="24.65" shape-rendering="crispEdges"/><rect fill="#26262f" x="24.4" y="123.5" width="12.2" height="24.65" shape-rendering="crispEdges"/><rect fill="#26262f" x="36.6" y="123.5" width="12.2" height="24.65" shape-rendering="crispEdges"/><rect fill="#26262f" x="48.8" y="123.5" width="268.4" height="24.65" shape-rendering="crispEdges"/><rect fill="#26262f" x="317.2" y="123.5" width="817.4" height="24.65" shape-rendering="crispEdges"/><rect fill="#26262f" x="1134.6" y="123.5" width="12.2" height="24.65" shape-rendering="crispEdges"/><rect fill="#1a1a22" x="1146.8" y="123.5" width="24.4" height="24.65" shape-rendering="crispEdges"/><rect fill="#1a1a22" x="1171.2" y="123.5" width="48.8" height="24.65" shape-rendering="crispEdges"/><rect fill="#1a1a22" x="0" y="147.9" width="24.4" height="24.65" shape-rendering="crispEdges"/><rect fill="#26262f" x="24.4" y="147.9" width="12.2" height="24.65" shape-rendering="crispEdges"/><rect fill="#26262f" x="36.6" y="147.9" width="1098" height="24.65" shape-rendering="crispEdges"/><rect fill="#26262f" x="1134.6" y="147.9" width="12.2" height="24.65" shape-rendering="crispEdges"/><rect fill="#1a1a22" x="1146.8" y="147.9" width="24.4" height="24.65" shape-rendering="crispEdges"/><rect fill="#1a1a22" x="1171.2" y="147.9" width="48.8" height="24.65" shape-rendering="crispEdges"/><rect fill="#1a1a22" x="0" y="172.3" width="24.4" height="24.65" shape-rendering="crispEdges"/><rect fill="#26262f" x="24.4" y="172.3" width="12.2" height="24.65" shape-rendering="crispEdges"/><rect fill="#26262f" x="36.6" y="172.3" width="24.4" height="24.65" shape-rendering="crispEdges"/><rect fill="#26262f" x="61" y="172.3" width="1049.2" height="24.65" shape-rendering="crispEdges"/><rect fill="#26262f" x="1110.2" y="172.3" width="24.4" height="24.65" shape-rendering="crispEdges"/><rect fill="#26262f" x="1134.6" y="172.3" width="12.2" height="24.65" shape-rendering="crispEdges"/><rect fill="#1a1a22" x="1146.8" y="172.3" width="24.4" height="24.65" shape-rendering="crispEdges"/><rect fill="#1a1a22" x="1171.2" y="172.3" width="48.8" height="24.65" shape-rendering="crispEdges"/><rect fill="#1a1a22" x="0" y="196.7" width="24.4" height="24.65" shape-rendering="crispEdges"/><rect fill="#26262f" x="24.4" y="196.7" width="12.2" height="24.65" shape-rendering="crispEdges"/><rect fill="#26262f" x="36.6" y="196.7" width="24.4" height="24.65" shape-rendering="crispEdges"/><rect fill="#212129" x="61" y="196.7" width="390.4" height="24.65" shape-rendering="crispEdges"/><rect fill="#212129" x="451.4" y="196.7" width="36.6" height="24.65" shape-rendering="crispEdges"/><rect fill="#212129" x="488" y="196.7" width="24.4" height="24.65" shape-rendering="crispEdges"/><rect fill="#212129" x="512.4" y="196.7" width="12.2" height="24.65" shape-rendering="crispEdges"/><rect fill="#212129" x="524.6" y="196.7" width="97.6" height="24.65" shape-rendering="crispEdges"/><rect fill="#26262f" x="622.2" y="196.7" width="488" height="24.65" shape-rendering="crispEdges"/><rect fill="#26262f" x="1110.2" y="196.7" width="24.4" height="24.65" shape-rendering="crispEdges"/><rect fill="#26262f" x="1134.6" y="196.7" width="12.2" height="24.65" shape-rendering="crispEdges"/><rect fill="#1a1a22" x="1146.8" y="196.7" width="24.4" height="24.65" shape-rendering="crispEdges"/><rect fill="#1a1a22" x="1171.2" y="196.7" width="48.8" height="24.65" shape-rendering="crispEdges"/><rect fill="#1a1a22" x="0" y="221.1" width="24.4" height="24.65" shape-rendering="crispEdges"/><rect fill="#26262f" x="24.4" y="221.1" width="12.2" height="24.65" shape-rendering="crispEdges"/><rect fill="#26262f" x="36.6" y="221.1" width="24.4" height="24.65" shape-rendering="crispEdges"/><rect fill="#26262f" x="61" y="221.1" width="1049.2" height="24.65" shape-rendering="crispEdges"/><rect fill="#26262f" x="1110.2" y="221.1" width="24.4" height="24.65" shape-rendering="crispEdges"/><rect fill="#26262f" x="1134.6" y="221.1" width="12.2" height="24.65" shape-rendering="crispEdges"/><rect fill="#1a1a22" x="1146.8" y="221.1" width="24.4" height="24.65" shape-rendering="crispEdges"/><rect fill="#1a1a22" x="1171.2" y="221.1" width="48.8" height="24.65" shape-rendering="crispEdges"/><rect fill="#1a1a22" x="0" y="245.5" width="24.4" height="24.65" shape-rendering="crispEdges"/><rect fill="#26262f" x="24.4" y="245.5" width="12.2" height="24.65" shape-rendering="crispEdges"/><rect fill="#26262f" x="36.6" y="245.5" width="24.4" height="24.65" shape-rendering="crispEdges"/><rect fill="#26262f" x="61" y="245.5" width="1049.2" height="24.65" shape-rendering="crispEdges"/><rect fill="#26262f" x="1110.2" y="245.5" width="24.4" height="24.65" shape-rendering="crispEdges"/><rect fill="#26262f" x="1134.6" y="245.5" width="12.2" height="24.65" shape-rendering="crispEdges"/><rect fill="#1a1a22" x="1146.8" y="245.5" width="24.4" height="24.65" shape-rendering="crispEdges"/><rect fill="#1a1a22" x="1171.2" y="245.5" width="48.8" height="24.65" shape-rendering="crispEdges"/><rect fill="#1a1a22" x="0" y="269.9" width="24.4" height="24.65" shape-rendering="crispEdges"/><rect fill="#26262f" x="24.4" y="269.9" width="12.2" height="24.65" shape-rendering="crispEdges"/><rect fill="#26262f" x="36.6" y="269.9" width="24.4" height="24.65" shape-rendering="crispEdges"/><rect fill="#212129" x="61" y="269.9" width="122" height="24.65" shape-rendering="crispEdges"/><rect fill="#26262f" x="183" y="269.9" width="927.2" height="24.65" shape-rendering="crispEdges"/><rect fill="#26262f" x="1110.2" y="269.9" width="24.4" height="24.65" shape-rendering="crispEdges"/><rect fill="#26262f" x="1134.6" y="269.9" width="12.2" height="24.65" shape-rendering="crispEdges"/><rect fill="#1a1a22" x="1146.8" y="269.9" width="24.4" height="24.65" shape-rendering="crispEdges"/><rect fill="#1a1a22" x="1171.2" y="269.9" width="48.8" height="24.65" shape-rendering="crispEdges"/><rect fill="#1a1a22" x="0" y="294.3" width="24.4" height="24.65" shape-rendering="crispEdges"/><rect fill="#26262f" x="24.4" y="294.3" width="12.2" height="24.65" shape-rendering="crispEdges"/><rect fill="#26262f" x="36.6" y="294.3" width="24.4" height="24.65" shape-rendering="crispEdges"/><rect fill="#26262f" x="61" y="294.3" width="1049.2" height="24.65" shape-rendering="crispEdges"/><rect fill="#26262f" x="1110.2" y="294.3" width="24.4" height="24.65" shape-rendering="crispEdges"/><rect fill="#26262f" x="1134.6" y="294.3" width="12.2" height="24.65" shape-rendering="crispEdges"/><rect fill="#1a1a22" x="1146.8" y="294.3" width="24.4" height="24.65" shape-rendering="crispEdges"/><rect fill="#1a1a22" x="1171.2" y="294.3" width="48.8" height="24.65" shape-rendering="crispEdges"/><rect fill="#1a1a22" x="0" y="318.7" width="24.4" height="24.65" shape-rendering="crispEdges"/><rect fill="#26262f" x="24.4" y="318.7" width="12.2" height="24.65" shape-rendering="crispEdges"/><rect fill="#26262f" x="36.6" y="318.7" width="1098" height="24.65" shape-rendering="crispEdges"/><rect fill="#26262f" x="1134.6" y="318.7" width="12.2" height="24.65" shape-rendering="crispEdges"/><rect fill="#1a1a22" x="1146.8" y="318.7" width="24.4" height="24.65" shape-rendering="crispEdges"/><rect fill="#1a1a22" x="1171.2" y="318.7" width="48.8" height="24.65" shape-rendering="crispEdges"/><rect fill="#1a1a22" x="0" y="343.1" width="24.4" height="24.65" shape-rendering="crispEdges"/><rect fill="#26262f" x="24.4" y="343.1" width="12.2" height="24.65" shape-rendering="crispEdges"/><rect fill="#26262f" x="36.6" y="343.1" width="866.2" height="24.65" shape-rendering="crispEdges"/><rect fill="#26262f" x="902.8" y="343.1" width="219.6" height="24.65" shape-rendering="crispEdges"/><rect fill="#26262f" x="1122.4" y="343.1" width="12.2" height="24.65" shape-rendering="crispEdges"/><rect fill="#26262f" x="1134.6" y="343.1" width="12.2" height="24.65" shape-rendering="crispEdges"/><rect fill="#1a1a22" x="1146.8" y="343.1" width="24.4" height="24.65" shape-rendering="crispEdges"/><rect fill="#1a1a22" x="1171.2" y="343.1" width="48.8" height="24.65" shape-rendering="crispEdges"/><rect fill="#1a1a22" x="0" y="367.5" width="1171.2" height="24.65" shape-rendering="crispEdges"/><rect fill="#1a1a22" x="1171.2" y="367.5" width="48.8" height="24.65" shape-rendering="crispEdges"/><rect fill="#1a1a22" x="0" y="391.9" width="1171.2" height="24.65" shape-rendering="crispEdges"/><rect fill="#1a1a22" x="1171.2" y="391.9" width="48.8" height="24.65" shape-rendering="crispEdges"/><rect fill="#1a1a22" x="0" y="416.3" width="1171.2" height="24.65" shape-rendering="crispEdges"/><rect fill="#1a1a22" x="1171.2" y="416.3" width="48.8" height="24.65" shape-rendering="crispEdges"/><rect fill="#1a1a22" x="0" y="440.7" width="1171.2" height="24.65" shape-rendering="crispEdges"/><rect fill="#1a1a22" x="1171.2" y="440.7" width="48.8" height="24.65" shape-rendering="crispEdges"/><rect fill="#1a1a22" x="0" y="465.1" width="1171.2" height="24.65" shape-rendering="crispEdges"/><rect fill="#1a1a22" x="1171.2" y="465.1" width="48.8" height="24.65" shape-rendering="crispEdges"/><rect fill="#1a1a22" x="0" y="489.5" width="1171.2" height="24.65" shape-rendering="crispEdges"/><rect fill="#1a1a22" x="1171.2" y="489.5" width="48.8" height="24.65" shape-rendering="crispEdges"/><rect fill="#1a1a22" x="0" y="513.9" width="1171.2" height="24.65" shape-rendering="crispEdges"/><rect fill="#1a1a22" x="1171.2" y="513.9" width="48.8" height="24.65" shape-rendering="crispEdges"/><rect fill="#1a1a22" x="0" y="538.3" width="1171.2" height="24.65" shape-rendering="crispEdges"/><rect fill="#1a1a22" x="1171.2" y="538.3" width="48.8" height="24.65" shape-rendering="crispEdges"/><rect fill="#1a1a22" x="0" y="562.7" width="1171.2" height="24.65" shape-rendering="crispEdges"/><rect fill="#1a1a22" x="1171.2" y="562.7" width="48.8" height="24.65" shape-rendering="crispEdges"/><rect fill="#1a1a22" x="0" y="587.1" width="1171.2" height="24.65" shape-rendering="crispEdges"/><rect fill="#1a1a22" x="1171.2" y="587.1" width="48.8" height="24.65" shape-rendering="crispEdges"/><rect fill="#1a1a22" x="0" y="611.5" width="1171.2" height="24.65" shape-rendering="crispEdges"/><rect fill="#1a1a22" x="1171.2" y="611.5" width="48.8" height="24.65" shape-rendering="crispEdges"/><rect fill="#1a1a22" x="0" y="635.9" width="1171.2" height="24.65" shape-rendering="crispEdges"/><rect fill="#1a1a22" x="1171.2" y="635.9" width="48.8" height="24.65" shape-rendering="crispEdges"/><rect fill="#1a1a22" x="0" y="660.3" width="1171.2" height="24.65" shape-rendering="crispEdges"/><rect fill="#1a1a22" x="1171.2" y="660.3" width="48.8" height="24.65" shape-rendering="crispEdges"/><rect fill="#1a1a22" x="0" y="684.7" width="1171.2" height="24.65" shape-rendering="crispEdges"/><rect fill="#1a1a22" x="1171.2" y="684.7" width="48.8" height="24.65" shape-rendering="crispEdges"/><rect fill="#1a1a22" x="0" y="709.1" width="1171.2" height="24.65" shape-rendering="crispEdges"/><rect fill="#1a1a22" x="1171.2" y="709.1" width="48.8" height="24.65" shape-rendering="crispEdges"/><rect fill="#1a1a22" x="0" y="733.5" width="1171.2" height="24.65" shape-rendering="crispEdges"/><rect fill="#1a1a22" x="1171.2" y="733.5" width="48.8" height="24.65" shape-rendering="crispEdges"/><rect fill="#1a1a22" x="0" y="757.9" width="1171.2" height="24.65" shape-rendering="crispEdges"/><rect fill="#1a1a22" x="1171.2" y="757.9" width="48.8" height="24.65" shape-rendering="crispEdges"/><rect fill="#1a1a22" x="0" y="782.3" width="1171.2" height="24.65" shape-rendering="crispEdges"/><rect fill="#1a1a22" x="1171.2" y="782.3" width="48.8" height="24.65" shape-rendering="crispEdges"/><rect fill="#1a1a22" x="0" y="806.7" width="1171.2" height="24.65" shape-rendering="crispEdges"/><rect fill="#1a1a22" x="1171.2" y="806.7" width="48.8" height="24.65" shape-rendering="crispEdges"/><rect fill="#1a1a22" x="0" y="831.1" width="1171.2" height="24.65" shape-rendering="crispEdges"/><rect fill="#1a1a22" x="1171.2" y="831.1" width="48.8" height="24.65" shape-rendering="crispEdges"/><rect fill="#1a1a22" x="0" y="855.5" width="1171.2" height="24.65" shape-rendering="crispEdges"/><rect fill="#1a1a22" x="1171.2" y="855.5" width="48.8" height="24.65" shape-rendering="crispEdges"/><rect fill="#1a1a22" x="0" y="879.9" width="1171.2" height="24.65" shape-rendering="crispEdges"/><rect fill="#1a1a22" x="1171.2" y="879.9" width="48.8" height="24.65" shape-rendering="crispEdges"/><rect fill="#313140" x="0" y="904.3" width="36.6" height="24.65" shape-rendering="crispEdges"/><rect fill="#313140" x="36.6" y="904.3" width="73.2" height="24.65" shape-rendering="crispEdges"/><rect fill="#313140" x="109.8" y="904.3" width="61" height="24.65" shape-rendering="crispEdges"/><rect fill="#313140" x="170.8" y="904.3" width="73.2" height="24.65" shape-rendering="crispEdges"/><rect fill="#313140" x="244" y="904.3" width="36.6" height="24.65" shape-rendering="crispEdges"/><rect fill="#313140" x="280.6" y="904.3" width="183" height="24.65" shape-rendering="crispEdges"/><rect fill="#313140" x="463.6" y="904.3" width="36.6" height="24.65" shape-rendering="crispEdges"/><rect fill="#313140" x="500.2" y="904.3" width="170.8" height="24.65" shape-rendering="crispEdges"/><rect fill="#313140" x="671" y="904.3" width="402.6" height="24.65" shape-rendering="crispEdges"/><rect fill="#313140" x="1073.6" y="904.3" width="12.2" height="24.65" shape-rendering="crispEdges"/><rect fill="#313140" x="1085.8" y="904.3" width="24.4" height="24.65" shape-rendering="crispEdges"/><rect fill="#313140" x="1110.2" y="904.3" width="97.6" height="24.65" shape-rendering="crispEdges"/><rect fill="#313140" x="1207.8" y="904.3" width="12.2" height="24.65" shape-rendering="crispEdges"/>
    <g class="terminal-173405663-matrix">
    <text class="terminal-173405663-r2" x="12.2" y="20" textLength="12.2" clip-path="url(#terminal-173405663-line-0)">⭘</text><text class="terminal-173405663-r2" x="329.4" y="20" textLength="244" clip-path="url(#terminal-173405663-line-0)">IDEAM&#160;Data&#160;Automator</text><text class="terminal-173405663-r3" x="573.4" y="20" textLength="36.6" clip-path="url(#terminal-173405663-line-0)">&#160;—&#160;</text><text class="terminal-173405663-r3" x="610" y="20" textLength="256.2" clip-path="url(#terminal-173405663-line-0)">Asistente&#160;de&#160;descarga</text><text class="terminal-173405663-r4" x="1110.2" y="20" textLength="97.6" clip-path="url(#terminal-173405663-line-0)">08:28:24</text><text class="terminal-173405663-r1" x="1220" y="20" textLength="12.2" clip-path="url(#terminal-173405663-line-0)">
</text><text class="terminal-173405663-r1" x="1220" y="44.4" textLength="12.2" clip-path="url(#terminal-173405663-line-1)">
</text><text class="terminal-173405663-r5" x="244" y="68.8" textLength="146.4" clip-path="url(#terminal-173405663-line-2)">&#160;✓&#160;Variable&#160;</text><text class="terminal-173405663-r6" x="414.8" y="68.8" textLength="12.2" clip-path="url(#terminal-173405663-line-2)">→</text><text class="terminal-173405663-r5" x="451.4" y="68.8" textLength="122" clip-path="url(#terminal-173405663-line-2)">&#160;✓&#160;Deptos&#160;</text><text class="terminal-173405663-r6" x="597.8" y="68.8" textLength="12.2" clip-path="url(#terminal-173405663-line-2)">→</text><text class="terminal-173405663-r5" x="634.4" y="68.8" textLength="97.6" clip-path="url(#terminal-173405663-line-2)">&#160;✓&#160;Años&#160;</text><text class="terminal-173405663-r6" x="756.4" y="68.8" textLength="12.2" clip-path="url(#terminal-173405663-line-2)">→</text><text class="terminal-173405663-r7" x="793" y="68.8" textLength="170.8" clip-path="url(#terminal-173405663-line-2)">&#160;4&#160;·&#160;Descarga&#160;</text><text class="terminal-173405663-r1" x="1220" y="68.8" textLength="12.2" clip-path="url(#terminal-173405663-line-2)">
</text><text class="terminal-173405663-r9" x="195.2" y="93.2" textLength="12.2" clip-path="url(#terminal-173405663-line-3)">✔</text><text class="terminal-173405663-r8" x="207.4" y="93.2" textLength="134.2" clip-path="url(#terminal-173405663-line-3)">&#160;Variable:&#160;</text><text class="terminal-173405663-r10" x="341.6" y="93.2" textLength="158.6" clip-path="url(#terminal-173405663-line-3)">Precipitación</text><text class="terminal-173405663-r9" x="536.8" y="93.2" textLength="12.2" clip-path="url(#terminal-173405663-line-3)">✔</text><text class="terminal-173405663-r8" x="549" y="93.2" textLength="109.8" clip-path="url(#terminal-173405663-line-3)">&#160;Deptos:&#160;</text><text class="terminal-173405663-r10" x="658.8" y="93.2" textLength="109.8" clip-path="url(#terminal-173405663-line-3)">ATLANTICO</text><text class="terminal-173405663-r9" x="805.2" y="93.2" textLength="12.2" clip-path="url(#terminal-173405663-line-3)">✔</text><text class="terminal-173405663-r8" x="817.4" y="93.2" textLength="85.4" clip-path="url(#terminal-173405663-line-3)">&#160;Años:&#160;</text><text class="terminal-173405663-r10" x="902.8" y="93.2" textLength="109.8" clip-path="url(#terminal-173405663-line-3)">2024–2024</text><text class="terminal-173405663-r1" x="1220" y="93.2" textLength="12.2" clip-path="url(#terminal-173405663-line-3)">
</text><text class="terminal-173405663-r1" x="1220" y="117.6" textLength="12.2" clip-path="url(#terminal-173405663-line-4)">
</text><text class="terminal-173405663-r11" x="24.4" y="142" textLength="12.2" clip-path="url(#terminal-173405663-line-5)">╭</text><text class="terminal-173405663-r11" x="36.6" y="142" textLength="12.2" clip-path="url(#terminal-173405663-line-5)">─</text><text class="terminal-173405663-r12" x="48.8" y="142" textLength="268.4" clip-path="url(#terminal-173405663-line-5)">&#160;&#160;&#160;🌧️&#160;Precipitación&#160;&#160;&#160;</text><text class="terminal-173405663-r11" x="317.2" y="142" textLength="817.4" clip-path="url(#terminal-173405663-line-5)">───────────────────────────────────────────────────────────────────</text><text class="terminal-173405663-r11" x="1134.6" y="142" textLength="12.2" clip-path="url(#terminal-173405663-line-5)">╮</text><text class="terminal-173405663-r1" x="1220" y="142" textLength="12.2" clip-path="url(#terminal-173405663-line-5)">
</text><text class="terminal-173405663-r11" x="24.4" y="166.4" textLength="12.2" clip-path="url(#terminal-173405663-line-6)">│</text><text class="terminal-173405663-r11" x="1134.6" y="166.4" textLength="12.2" clip-path="url(#terminal-173405663-line-6)">│</text><text class="terminal-173405663-r1" x="1220" y="166.4" textLength="12.2" clip-path="url(#terminal-173405663-line-6)">
</text><text class="terminal-173405663-r11" x="24.4" y="190.8" textLength="12.2" clip-path="url(#terminal-173405663-line-7)">│</text><text class="terminal-173405663-r11" x="1134.6" y="190.8" textLength="12.2" clip-path="url(#terminal-173405663-line-7)">│</text><text class="terminal-173405663-r1" x="1220" y="190.8" textLength="12.2" clip-path="url(#terminal-173405663-line-7)">
</text><text class="terminal-173405663-r11" x="24.4" y="215.2" textLength="12.2" clip-path="url(#terminal-173405663-line-8)">│</text><text class="terminal-173405663-r13" x="61" y="215.2" textLength="390.4" clip-path="url(#terminal-173405663-line-8)">━━━━━━━━━━━━━━━━━━━━━━━━━━━━━━━━</text><text class="terminal-173405663-r2" x="488" y="215.2" textLength="24.4" clip-path="url(#terminal-173405663-line-8)">0%</text><text class="terminal-173405663-r2" x="524.6" y="215.2" textLength="97.6" clip-path="url(#terminal-173405663-line-8)">--:--:--</text><text class="terminal-173405663-r11" x="1134.6" y="215.2" textLength="12.2" clip-path="url(#terminal-173405663-line-8)">│</text><text class="terminal-173405663-r1" x="1220" y="215.2" textLength="12.2" clip-path="url(#terminal-173405663-line-8)">
</text><text class="terminal-173405663-r11" x="24.4" y="239.6" textLength="12.2" clip-path="url(#terminal-173405663-line-9)">│</text><text class="terminal-173405663-r11" x="1134.6" y="239.6" textLength="12.2" clip-path="url(#terminal-173405663-line-9)">│</text><text class="terminal-173405663-r1" x="1220" y="239.6" textLength="12.2" clip-path="url(#terminal-173405663-line-9)">
</text><text class="terminal-173405663-r11" x="24.4" y="264" textLength="12.2" clip-path="url(#terminal-173405663-line-10)">│</text><text class="terminal-173405663-r11" x="1134.6" y="264" textLength="12.2" clip-path="url(#terminal-173405663-line-10)">│</text><text class="terminal-173405663-r1" x="1220" y="264" textLength="12.2" clip-path="url(#terminal-173405663-line-10)">
</text><text class="terminal-173405663-r11" x="24.4" y="288.4" textLength="12.2" clip-path="url(#terminal-173405663-line-11)">│</text><text class="terminal-173405663-r2" x="61" y="288.4" textLength="122" clip-path="url(#terminal-173405663-line-11)">Iniciando…</text><text class="terminal-173405663-r11" x="1134.6" y="288.4" textLength="12.2" clip-path="url(#terminal-173405663-line-11)">│</text><text class="terminal-173405663-r1" x="1220" y="288.4" textLength="12.2" clip-path="url(#terminal-173405663-line-11)">
</text><text class="terminal-173405663-r11" x="24.4" y="312.8" textLength="12.2" clip-path="url(#terminal-173405663-line-12)">│</text><text class="terminal-173405663-r11" x="1134.6" y="312.8" textLength="12.2" clip-path="url(#terminal-173405663-line-12)">│</text><text class="terminal-173405663-r1" x="1220" y="312.8" textLength="12.2" clip-path="url(#terminal-173405663-line-12)">
</text><text class="terminal-173405663-r11" x="24.4" y="337.2" textLength="12.2" clip-path="url(#terminal-173405663-line-13)">│</text><text class="terminal-173405663-r11" x="1134.6" y="337.2" textLength="12.2" clip-path="url(#terminal-173405663-line-13)">│</text><text class="terminal-173405663-r1" x="1220" y="337.2" textLength="12.2" clip-path="url(#terminal-173405663-line-13)">
</text><text class="terminal-173405663-r11" x="24.4" y="361.6" textLength="12.2" clip-path="url(#terminal-173405663-line-14)">╰</text><text class="terminal-173405663-r11" x="36.6" y="361.6" textLength="866.2" clip-path="url(#terminal-173405663-line-14)">───────────────────────────────────────────────────────────────────────</text><text class="terminal-173405663-r14" x="902.8" y="361.6" textLength="219.6" clip-path="url(#terminal-173405663-line-14)">&#160;&#160;&#160;descargando…&#160;&#160;&#160;</text><text class="terminal-173405663-r11" x="1122.4" y="361.6" textLength="12.2" clip-path="url(#terminal-173405663-line-14)">─</text><text class="terminal-173405663-r11" x="1134.6" y="361.6" textLength="12.2" clip-path="url(#terminal-173405663-line-14)">╯</text><text class="terminal-173405663-r1" x="1220" y="361.6" textLength="12.2" clip-path="url(#terminal-173405663-line-14)">
</text><text class="terminal-173405663-r1" x="1220" y="386" textLength="12.2" clip-path="url(#terminal-173405663-line-15)">
</text><text class="terminal-173405663-r1" x="1220" y="410.4" textLength="12.2" clip-path="url(#terminal-173405663-line-16)">
</text><text class="terminal-173405663-r1" x="1220" y="434.8" textLength="12.2" clip-path="url(#terminal-173405663-line-17)">
</text><text class="terminal-173405663-r1" x="1220" y="459.2" textLength="12.2" clip-path="url(#terminal-173405663-line-18)">
</text><text class="terminal-173405663-r1" x="1220" y="483.6" textLength="12.2" clip-path="url(#terminal-173405663-line-19)">
</text><text class="terminal-173405663-r1" x="1220" y="508" textLength="12.2" clip-path="url(#terminal-173405663-line-20)">
</text><text class="terminal-173405663-r1" x="1220" y="532.4" textLength="12.2" clip-path="url(#terminal-173405663-line-21)">
</text><text class="terminal-173405663-r1" x="1220" y="556.8" textLength="12.2" clip-path="url(#terminal-173405663-line-22)">
</text><text class="terminal-173405663-r1" x="1220" y="581.2" textLength="12.2" clip-path="url(#terminal-173405663-line-23)">
</text><text class="terminal-173405663-r1" x="1220" y="605.6" textLength="12.2" clip-path="url(#terminal-173405663-line-24)">
</text><text class="terminal-173405663-r1" x="1220" y="630" textLength="12.2" clip-path="url(#terminal-173405663-line-25)">
</text><text class="terminal-173405663-r1" x="1220" y="654.4" textLength="12.2" clip-path="url(#terminal-173405663-line-26)">
</text><text class="terminal-173405663-r1" x="1220" y="678.8" textLength="12.2" clip-path="url(#terminal-173405663-line-27)">
</text><text class="terminal-173405663-r1" x="1220" y="703.2" textLength="12.2" clip-path="url(#terminal-173405663-line-28)">
</text><text class="terminal-173405663-r1" x="1220" y="727.6" textLength="12.2" clip-path="url(#terminal-173405663-line-29)">
</text><text class="terminal-173405663-r1" x="1220" y="752" textLength="12.2" clip-path="url(#terminal-173405663-line-30)">
</text><text class="terminal-173405663-r1" x="1220" y="776.4" textLength="12.2" clip-path="url(#terminal-173405663-line-31)">
</text><text class="terminal-173405663-r1" x="1220" y="800.8" textLength="12.2" clip-path="url(#terminal-173405663-line-32)">
</text><text class="terminal-173405663-r1" x="1220" y="825.2" textLength="12.2" clip-path="url(#terminal-173405663-line-33)">
</text><text class="terminal-173405663-r1" x="1220" y="849.6" textLength="12.2" clip-path="url(#terminal-173405663-line-34)">
</text><text class="terminal-173405663-r1" x="1220" y="874" textLength="12.2" clip-path="url(#terminal-173405663-line-35)">
</text><text class="terminal-173405663-r1" x="1220" y="898.4" textLength="12.2" clip-path="url(#terminal-173405663-line-36)">
</text><text class="terminal-173405663-r15" x="0" y="922.8" textLength="36.6" clip-path="url(#terminal-173405663-line-37)">&#160;q&#160;</text><text class="terminal-173405663-r2" x="36.6" y="922.8" textLength="73.2" clip-path="url(#terminal-173405663-line-37)">Salir&#160;</text><text class="terminal-173405663-r15" x="109.8" y="922.8" textLength="61" clip-path="url(#terminal-173405663-line-37)">&#160;esc&#160;</text><text class="terminal-173405663-r2" x="170.8" y="922.8" textLength="73.2" clip-path="url(#terminal-173405663-line-37)">Atrás&#160;</text><text class="terminal-173405663-r15" x="244" y="922.8" textLength="36.6" clip-path="url(#terminal-173405663-line-37)">&#160;n&#160;</text><text class="terminal-173405663-r2" x="280.6" y="922.8" textLength="183" clip-path="url(#terminal-173405663-line-37)">Nueva&#160;consulta&#160;</text><text class="terminal-173405663-r15" x="463.6" y="922.8" textLength="36.6" clip-path="url(#terminal-173405663-line-37)">&#160;o&#160;</text><text class="terminal-173405663-r2" x="500.2" y="922.8" textLength="170.8" clip-path="url(#terminal-173405663-line-37)">Abrir&#160;carpeta&#160;</text><text class="terminal-173405663-r16" x="1073.6" y="922.8" textLength="12.2" clip-path="url(#terminal-173405663-line-37)">▏</text><text class="terminal-173405663-r15" x="1085.8" y="922.8" textLength="24.4" clip-path="url(#terminal-173405663-line-37)">^p</text><text class="terminal-173405663-r2" x="1110.2" y="922.8" textLength="97.6" clip-path="url(#terminal-173405663-line-37)">&#160;palette</text>
    </g>
    </g>
</svg>
